<svg width="22" height="22" viewBox="0 0 22 22" fill="none" xmlns="http://www.w3.org/2000/svg">
<g clip-path="url(#clip0_142_11)">
<path d="M20.0658 15.0381L18.8429 19.1611L16.4424 18.5064L20.0658 15.0381Z" fill="#E4761B"/>
<path fill-rule="evenodd" clip-rule="evenodd" d="M20.117 14.9548L18.8604 19.1917L16.3936 18.519L20.117 14.9548ZM16.492 18.494L18.8263 19.1306L20.0153 15.1214L16.492 18.494Z" fill="#E4761B"/>
<path d="M16.4424 18.5064L18.7577 15.3429L20.0658 15.0381L16.4424 18.5064Z" fill="#E4761B"/>
<path fill-rule="evenodd" clip-rule="evenodd" d="M20.1493 14.9929L16.46 18.5244L16.4224 18.4917L18.7432 15.3206L20.1493 14.9929ZM18.7727 15.3651L16.6309 18.2915L19.9828 15.0831L18.7727 15.3651Z" fill="#E4761B"/>
<path d="M18.2666 11.9295L20.0658 15.038L18.7577 15.3428L18.2666 11.9295ZM18.2666 11.9295L19.4243 11.1299L20.0658 15.038L18.2666 11.9295Z" fill="#F6851B"/>
<path fill-rule="evenodd" clip-rule="evenodd" d="M19.4426 11.0868L20.0898 15.0295L20.1043 15.0547L18.7368 15.3734L18.2425 11.9378L18.2334 11.922L19.4426 11.0868ZM18.3099 12.0542L20.0272 15.0214L18.7787 15.3124L18.3099 12.0542ZM20.0189 14.907L18.2999 11.9369L19.406 11.1729L20.0189 14.907Z" fill="#F6851B"/>
<path d="M16.7935 9.58068L20.1211 8.22131L19.9558 8.96597L16.7935 9.58068ZM19.8505 9.86055L16.7935 9.58068L19.9558 8.96597L19.8505 9.86055Z" fill="#763D16"/>
<path fill-rule="evenodd" clip-rule="evenodd" d="M20.1557 8.18005L19.9802 8.97009L19.8723 9.88759L16.7909 9.6055L16.7894 9.57665L16.7837 9.55749L20.1557 8.18005ZM17.0382 9.50753L19.9346 8.94452L20.0861 8.26251L17.0382 9.50753ZM16.97 9.57171L19.9266 8.99699L19.8282 9.83337L16.97 9.57171Z" fill="#763D16"/>
<path d="M19.8505 9.86056L19.4245 11.13L16.7935 9.58068L19.8505 9.86056ZM20.517 8.53617L19.9557 8.96597L20.1211 8.22131L20.517 8.53617ZM19.8505 9.86056L19.9557 8.96597L20.4018 9.3358L19.8505 9.86056Z" fill="#763D16"/>
<path fill-rule="evenodd" clip-rule="evenodd" d="M20.1054 8.17688L20.5578 8.53661L19.9959 8.96681L20.4395 9.33458L19.8724 9.87442L19.4385 11.1672L16.7808 9.60226L16.7958 9.55586L19.8285 9.8335L19.924 9.02189L19.9165 9.02768L19.9311 8.96187L19.9363 8.91737L19.9402 8.92062L20.1054 8.17688ZM19.9753 9.01471L19.8836 9.79467L20.3642 9.33715L19.9753 9.01471ZM19.9952 8.9044L20.4764 8.53587L20.137 8.2659L19.9952 8.9044ZM19.8168 9.88261L16.9023 9.6158L19.4106 11.0928L19.8168 9.88261Z" fill="#763D16"/>
<path d="M13.8618 17.502L14.6937 17.7668L16.4428 18.5065L13.8618 17.502Z" fill="#E2761B"/>
<path fill-rule="evenodd" clip-rule="evenodd" d="M13.8525 17.5252L13.8693 17.4781L14.7023 17.7434L16.4524 18.4834L16.4335 18.5297L13.8525 17.5252ZM14.6108 17.7667L14.8405 17.8561L14.6849 17.7903L14.6108 17.7667Z" fill="#E2761B"/>
<path d="M19.4246 11.1299L19.8506 9.86055L20.2165 10.1404L19.4246 11.1299ZM19.4246 11.1299L15.9717 9.99549L16.7936 9.58069L19.4246 11.1299Z" fill="#763D16"/>
<path fill-rule="evenodd" clip-rule="evenodd" d="M16.7943 9.55225L19.4105 11.0927L19.8378 9.81944L20.2518 10.1361L19.444 11.1456L19.425 11.1352L19.4166 11.1537L15.9062 10.0004L16.7943 9.55225ZM19.4931 11.0041L20.1807 10.1448L19.863 9.90173L19.4931 11.0041ZM19.2119 11.0338L16.0366 9.99063L16.7924 9.60919L19.2119 11.0338Z" fill="#763D16"/>
<path d="M17.6155 5.6875L16.7936 9.58065L15.9717 9.99545L17.6155 5.6875Z" fill="#763D16"/>
<path fill-rule="evenodd" clip-rule="evenodd" d="M16.0177 9.944L16.7711 9.56376L17.5245 5.99499L16.0177 9.944ZM17.5916 5.67859L17.6396 5.69262L16.8152 9.59752L15.9248 10.0469L17.5916 5.67859Z" fill="#763D16"/>
<path d="M20.1211 8.22131L16.7935 9.58067L17.6154 5.6875L20.1211 8.22131Z" fill="#763D16"/>
<path fill-rule="evenodd" clip-rule="evenodd" d="M17.6005 5.63684L20.1653 8.23029L16.7593 9.62165L17.6005 5.63684ZM17.6304 5.73817L16.8278 9.53965L20.0772 8.21231L17.6304 5.73817Z" fill="#763D16"/>
<path d="M17.6152 5.68753L21.0883 5.28772L20.1211 8.22131L17.6152 5.68753Z" fill="#763D16"/>
<path fill-rule="evenodd" clip-rule="evenodd" d="M21.1245 5.25842L20.1322 8.268L17.5615 5.66859L21.1245 5.25842ZM17.6694 5.70648L20.1102 8.17462L21.0524 5.31703L17.6694 5.70648Z" fill="#763D16"/>
<path d="M19.4246 11.13L18.2669 11.9296L15.9717 9.99548L19.4246 11.13Z" fill="#F6851B"/>
<path fill-rule="evenodd" clip-rule="evenodd" d="M15.9551 10.0146L15.9791 9.9718L19.4798 11.122L18.265 11.9611L15.9551 10.0146ZM16.0861 10.0596L18.268 11.8982L19.3686 11.138L16.0861 10.0596Z" fill="#F6851B"/>
<path d="M20.9379 2.48401L21.0883 5.28768L17.6152 5.68749L20.9379 2.48401Z" fill="#763D16"/>
<path fill-rule="evenodd" clip-rule="evenodd" d="M20.9602 2.42798L21.1148 5.30982L17.5449 5.72078L20.9602 2.42798ZM17.6861 5.65423L21.0622 5.26557L20.9161 2.54008L17.6861 5.65423Z" fill="#763D16"/>
<path d="M20.938 2.48401L13.9969 7.51661L13.9067 4.10324L20.938 2.48401Z" fill="#E2761B"/>
<path fill-rule="evenodd" clip-rule="evenodd" d="M13.9325 4.12305L14.0209 7.46852L20.824 2.53603L13.9325 4.12305ZM20.9326 2.45972L20.953 2.50427L13.9734 7.56481L13.8813 4.08354L20.9326 2.45972Z" fill="#E2761B"/>
<path d="M8.74463 3.69348L13.9066 4.10329L13.9968 7.51667L8.74463 3.69348Z" fill="#F6851B"/>
<path fill-rule="evenodd" clip-rule="evenodd" d="M8.6582 3.6615L13.9309 4.0801L14.0231 7.56676L8.6582 3.6615ZM8.83091 3.72534L13.9703 7.46646L13.882 4.12635L8.83091 3.72534Z" fill="#F6851B"/>
<path d="M15.9716 9.99545L13.9971 7.51663L17.6154 5.6875L15.9716 9.99545Z" fill="#763D16"/>
<path fill-rule="evenodd" clip-rule="evenodd" d="M17.6615 5.63599L15.9791 10.0453L13.958 7.50817L17.6615 5.63599ZM14.0355 7.52505L15.9635 9.9455L17.5686 5.73899L14.0355 7.52505Z" fill="#763D16"/>
<path d="M15.9716 9.99548L18.2669 11.9296L15.0444 12.2844L15.9716 9.99548Z" fill="#E4761B"/>
<path fill-rule="evenodd" clip-rule="evenodd" d="M15.9612 9.9541L18.3275 11.948L15.0054 12.3138L15.9612 9.9541ZM15.9817 10.0368L15.0833 12.255L18.206 11.9111L15.9817 10.0368Z" fill="#E4761B"/>
<path d="M15.0445 12.2844L13.9971 7.5166L15.9717 9.99543L15.0445 12.2844Z" fill="#E4761B"/>
<path fill-rule="evenodd" clip-rule="evenodd" d="M13.9727 7.52199L14.0168 7.5011L16.0004 9.99133L15.0374 12.3687L13.9727 7.52199ZM14.0447 7.61658L15.0517 12.2001L15.943 9.99961L14.0447 7.61658Z" fill="#E4761B"/>
<path d="M17.6154 5.68748L13.9971 7.51661L20.9381 2.48401L17.6154 5.68748Z" fill="#763D16"/>
<path fill-rule="evenodd" clip-rule="evenodd" d="M14.2655 7.35302L17.6008 5.66697L20.6635 2.71408L14.2655 7.35302ZM13.9824 7.49647L20.9234 2.46387L20.9556 2.50204L17.6302 5.70814L14.0085 7.53897L13.9824 7.49647Z" fill="#763D16"/>
<path d="M8.7901 18.4264L10.4289 20.1306L8.19873 18.1066L8.7901 18.4264Z" fill="#C0AD9E"/>
<path fill-rule="evenodd" clip-rule="evenodd" d="M8.18164 18.125L8.21045 18.0846L8.80526 18.4063L10.4468 20.1133L10.4118 20.149L8.18164 18.125ZM8.36816 18.2267L9.90052 19.6174L8.77449 18.4465L8.36816 18.2267Z" fill="#C0AD9E"/>
<path d="M16.4424 18.5064L17.2192 15.5628L18.7577 15.3429L16.4424 18.5064Z" fill="#CD6116"/>
<path fill-rule="evenodd" clip-rule="evenodd" d="M18.8133 15.3098L16.4629 18.5213L16.4185 18.5002L17.1995 15.5405L18.8133 15.3098ZM17.2395 15.5852L16.5007 18.3849L18.7027 15.3761L17.2395 15.5852Z" fill="#CD6116"/>
<path d="M2.14453 10.2253L4.98108 7.25171L2.51038 9.87045L2.14453 10.2253Z" fill="#E2761B"/>
<path d="M18.7577 15.3429L17.2192 15.5628L18.2666 11.9295L18.7577 15.3429ZM13.9968 7.51665L11.2354 7.4267L8.74463 3.69348L13.9968 7.51665Z" fill="#F6851B"/>
<path fill-rule="evenodd" clip-rule="evenodd" d="M8.72412 3.70736L8.75976 3.67334L14.0776 7.54433L11.222 7.45131L8.72412 3.70736ZM8.84363 3.79627L11.2494 7.4022L13.9167 7.48909L8.84363 3.79627ZM17.2543 15.5327L18.7297 15.3218L18.2588 12.0485L17.2543 15.5327ZM18.2429 11.9227L18.2918 11.9261L18.7865 15.3642L17.1848 15.5931L18.2429 11.9227Z" fill="#F6851B"/>
<path d="M18.2669 11.9296L17.2195 15.5628L17.1343 13.7887L18.2669 11.9296Z" fill="#E4751F"/>
<path fill-rule="evenodd" clip-rule="evenodd" d="M17.1597 13.7952L17.2373 15.4107L18.1911 12.1022L17.1597 13.7952ZM18.2455 11.9166L18.291 11.9365L17.2436 15.5698L17.1944 15.5641L17.1089 13.7823L18.2455 11.9166Z" fill="#E4751F"/>
<path d="M15.0444 12.2844L18.2669 11.9296L17.1343 13.7887L15.0444 12.2844Z" fill="#CD6116"/>
<path fill-rule="evenodd" clip-rule="evenodd" d="M18.3147 11.8992L17.1416 13.8248L14.9771 12.2667L18.3147 11.8992ZM15.1119 12.3021L17.1269 13.7526L18.219 11.96L15.1119 12.3021Z" fill="#CD6116"/>
<path d="M11.2354 7.42676L13.9967 7.51671L15.0442 12.2845L11.2354 7.42676Z" fill="#F6851B"/>
<path fill-rule="evenodd" clip-rule="evenodd" d="M11.1826 7.40002L14.0171 7.49236L15.0687 12.2791L15.0245 12.2999L11.1826 7.40002ZM11.2881 7.45347L14.9962 12.1827L13.9765 7.54104L11.2881 7.45347Z" fill="#F6851B"/>
<path d="M11.2354 7.42667L3.78316 0.549927L8.74461 3.69344L11.2354 7.42667ZM8.7396 19.471L2.26466 21.47L0.97168 16.5473L8.7396 19.471Z" fill="#E4761B"/>
<path fill-rule="evenodd" clip-rule="evenodd" d="M3.76655 0.568362L3.79701 0.528931L8.76296 3.67527L11.2567 7.41291L11.2188 7.44509L3.76655 0.568362ZM4.00367 0.719077L11.0984 7.26591L8.72712 3.71178L4.00367 0.719077ZM0.935547 16.5069L8.81719 19.4733L2.24746 21.5017L0.935547 16.5069ZM1.00861 16.5879L2.28267 21.4385L8.66286 19.4687L1.00861 16.5879Z" fill="#E4761B"/>
<path d="M3.10693 11.4547L5.55258 9.54065L7.60232 10.0154L3.10693 11.4547Z" fill="#763D16"/>
<path fill-rule="evenodd" clip-rule="evenodd" d="M5.5464 9.51367L7.69622 10.0116L3.11444 11.4786L3.09131 11.4351L5.5464 9.51367ZM5.55846 9.56777L3.23221 11.3884L7.50811 10.0194L5.55846 9.56777Z" fill="#763D16"/>
<path d="M7.60198 10.0154L5.55225 9.54068L6.64978 5.02283L7.60198 10.0154Z" fill="#763D16"/>
<path fill-rule="evenodd" clip-rule="evenodd" d="M5.58259 9.52207L7.57021 9.98245L6.64687 5.14112L5.58259 9.52207ZM6.62546 5.01697L6.67443 5.01818L7.63382 10.0485L5.52197 9.55933L6.62546 5.01697Z" fill="#763D16"/>
<path d="M2.51025 9.87049L5.55229 9.54065L3.10663 11.4547L2.51025 9.87049Z" fill="#763D16"/>
<path fill-rule="evenodd" clip-rule="evenodd" d="M5.63682 9.50647L3.09533 11.4956L2.47559 9.84924L5.63682 9.50647ZM2.5452 9.89196L3.11821 11.4141L5.46803 9.57504L2.5452 9.89196Z" fill="#763D16"/>
<path d="M17.1343 13.7887L15.8714 13.154L15.0444 12.2844L17.1343 13.7887Z" fill="#CD6116"/>
<path fill-rule="evenodd" clip-rule="evenodd" d="M15.0264 12.3016L15.0592 12.2642L17.1491 13.7684L17.1231 13.811L15.8563 13.1744L15.0264 12.3016ZM15.2469 12.4609L15.8866 13.1336L16.8637 13.6247L15.2469 12.4609Z" fill="#CD6116"/>
<path d="M2.51042 9.87053L2.29492 8.73608L5.55244 9.54069L2.51042 9.87053Z" fill="#763D16"/>
<path fill-rule="evenodd" clip-rule="evenodd" d="M2.26318 8.70239L5.55861 9.51637L5.5553 9.56547L2.49026 9.89781L2.26318 8.70239ZM2.32696 8.76963L2.53088 9.84313L5.40944 9.53101L2.32696 8.76963Z" fill="#763D16"/>
<path d="M15.6108 14.5833L15.8714 13.1539L17.1344 13.7886L15.6108 14.5833Z" fill="#233447"/>
<path fill-rule="evenodd" clip-rule="evenodd" d="M15.8524 13.1167L17.1889 13.7883L15.5767 14.6292L15.8524 13.1167ZM15.8897 13.1914L15.6443 14.5375L17.0791 13.7892L15.8897 13.1914Z" fill="#233447"/>
<path d="M17.2196 15.5628L15.6108 14.5833L17.1344 13.7887L17.2196 15.5628Z" fill="#F6851B"/>
<path fill-rule="evenodd" clip-rule="evenodd" d="M17.1571 13.7484L17.2464 15.6087L15.5596 14.5816L17.1571 13.7484ZM15.6613 14.585L17.1918 15.5169L17.1108 13.829L15.6613 14.585Z" fill="#F6851B"/>
<path d="M5.55242 9.54068L2.29491 8.73606L2.0293 7.78151L5.55242 9.54068ZM6.64995 5.02283L5.55242 9.54068L2.0293 7.78151L6.64995 5.02283ZM6.64995 5.02283L11.2355 7.42668L7.60215 10.0154L6.64995 5.02283Z" fill="#763D16"/>
<path fill-rule="evenodd" clip-rule="evenodd" d="M6.61135 5.07484L2.08116 7.77952L5.53531 9.50423L6.61135 5.07484ZM5.33946 9.46234L2.06834 7.829L2.31495 8.71527L5.33946 9.46234ZM1.99986 7.76981L1.97705 7.78342L2.00794 7.79884L2.27449 8.75676L5.54352 9.56423L5.56918 9.57704L6.64683 5.14105L7.58468 10.0584L11.283 7.42339L6.67873 5.00972L6.68821 4.9707L6.64898 4.99412L6.61546 4.97655L6.62189 5.0103L2.02803 7.75299L1.98987 7.73393L1.99986 7.76981ZM6.6841 5.069L7.61928 9.97238L11.1877 7.42988L6.6841 5.069Z" fill="#763D16"/>
<path d="M7.60205 10.0155L11.2354 7.42676L12.8542 12.3594L7.60205 10.0155ZM12.8542 12.3594L7.83258 12.2545L7.60205 10.0155L12.8542 12.3594Z" fill="#E4761B"/>
<path fill-rule="evenodd" clip-rule="evenodd" d="M11.249 7.3866L12.8959 12.4053L12.8489 12.3843L7.81024 12.279L7.57893 10.0324L7.55225 10.0205L7.57596 10.0036L7.57302 9.97502L7.5995 9.98684L11.249 7.3866ZM7.63173 10.056L12.7314 12.3318L7.85557 12.2299L7.63173 10.056ZM12.8131 12.3135L7.6525 10.0105L11.2226 7.46683L12.8131 12.3135Z" fill="#E4761B"/>
<path d="M3.10693 11.4549L7.60232 10.0155L7.83285 12.2545L3.10693 11.4549ZM15.0445 12.2845L12.8545 12.3594L11.2357 7.42676L15.0445 12.2845Z" fill="#F6851B"/>
<path fill-rule="evenodd" clip-rule="evenodd" d="M11.2117 7.43454L11.2553 7.41138L15.0944 12.3078L12.8363 12.3851L11.2117 7.43454ZM11.3038 7.55437L12.8723 12.3338L14.9943 12.2612L11.3038 7.55437ZM7.62394 9.98233L7.86099 12.2846L3.10259 11.4795L3.09912 11.4311L7.62394 9.98233ZM3.2122 11.4474L7.80441 12.2244L7.5804 10.0488L3.2122 11.4474Z" fill="#F6851B"/>
<path d="M15.8714 13.154L15.6108 14.5833L15.0444 12.2844L15.8714 13.154Z" fill="#CD6116"/>
<path fill-rule="evenodd" clip-rule="evenodd" d="M14.9976 12.1989L15.8983 13.1461L15.6354 14.5879L15.5864 14.5894L14.9976 12.1989ZM15.0914 12.3701L15.6071 14.4638L15.8445 13.1621L15.0914 12.3701Z" fill="#CD6116"/>
<path d="M3.7832 0.549927L11.2354 7.42667L6.64981 5.02281L3.7832 0.549927Z" fill="#763D16"/>
<path fill-rule="evenodd" clip-rule="evenodd" d="M3.76221 0.563413L3.80034 0.531616L11.2525 7.40832L11.2238 7.44878L6.63239 5.04185L3.76221 0.563413ZM3.9095 0.700438L6.66746 5.00378L11.0792 7.31652L3.9095 0.700438Z" fill="#763D16"/>
<path d="M0.97168 16.5474L7.2562 16.2875L8.73963 19.4709L0.97168 16.5474Z" fill="#E4761B"/>
<path fill-rule="evenodd" clip-rule="evenodd" d="M7.27193 16.2618L8.78829 19.516L0.962891 16.5708L0.970701 16.5224L7.27193 16.2618ZM1.09555 16.5673L8.69109 19.426L7.24058 16.3132L1.09555 16.5673Z" fill="#E4761B"/>
<path d="M8.73977 19.471L7.25635 16.2875L10.3435 16.1376L8.73977 19.471Z" fill="#CD6116"/>
<path fill-rule="evenodd" clip-rule="evenodd" d="M10.3841 16.1105L8.73927 19.5294L7.21777 16.2642L10.3841 16.1105ZM7.29461 16.3106L8.73999 19.4124L10.3026 16.1645L7.29461 16.3106Z" fill="#CD6116"/>
<path d="M15.6105 14.5832L17.2192 15.5628L18.1063 17.6468L15.6105 14.5832ZM7.83253 12.2543L0.97168 16.5473L3.10661 11.4547L7.83253 12.2543ZM7.2562 16.2874L0.97168 16.5473L7.83253 12.2543L7.2562 16.2874ZM15.0442 12.2843L15.4551 13.7736L13.4706 13.8886L15.0442 12.2843ZM13.4706 13.8886L12.8541 12.3593L15.0442 12.2843L13.4706 13.8886Z" fill="#F6851B"/>
<path fill-rule="evenodd" clip-rule="evenodd" d="M3.0912 11.4269L7.82734 12.2282L7.86499 12.2047L7.86081 12.2339L7.90156 12.2408L7.85573 12.2695L7.2781 16.3116L0.979382 16.5721L0.918116 16.6104L0.93339 16.574L0.878418 16.5763L0.951645 16.5305L3.0912 11.4269ZM3.12207 11.4828L1.02528 16.4844L7.76357 12.2681L3.12207 11.4828ZM7.80014 12.3042L1.06498 16.5185L7.23436 16.2634L7.80014 12.3042ZM15.0722 12.2917L15.1059 12.2573L15.0632 12.2588L15.0568 12.2359L15.0333 12.2598L12.8176 12.3357L13.4413 13.8829L13.4074 13.9174L13.4541 13.9147L13.4617 13.9335L13.4817 13.9131L15.4876 13.7969L15.0722 12.2917ZM12.8908 12.3832L13.4795 13.8438L14.9826 12.3116L12.8908 12.3832ZM15.0317 12.333L13.5338 13.86L15.4228 13.7506L15.0317 12.333ZM15.5911 14.5991L15.6236 14.562L17.2392 15.5457L18.1294 17.6371L18.0869 17.6626L15.5911 14.5991ZM15.7219 14.6805L18.014 17.4939L17.1993 15.58L15.7219 14.6805Z" fill="#F6851B"/>
<path d="M10.4287 20.1306L8.73975 19.4709L14.6133 20.4555L10.4287 20.1306Z" fill="#C0AD9E"/>
<path fill-rule="evenodd" clip-rule="evenodd" d="M8.73047 19.4942L8.74376 19.4463L14.6174 20.4308L14.6113 20.4804L10.4229 20.1552L8.73047 19.4942ZM8.9736 19.5355L10.4342 20.106L14.0531 20.3869L8.9736 19.5355Z" fill="#C0AD9E"/>
<path d="M3.10675 11.4547L2.14453 10.2253L2.51038 9.87048L3.10675 11.4547Z" fill="#763D16"/>
<path fill-rule="evenodd" clip-rule="evenodd" d="M2.52026 9.82593L3.13011 11.446L3.08689 11.4701L2.11084 10.223L2.52026 9.82593ZM2.178 10.2276L3.02562 11.3106L2.50027 9.91503L2.178 10.2276Z" fill="#763D16"/>
<path d="M15.2799 19.7258L14.6133 20.4555L8.73975 19.4709L15.2799 19.7258Z" fill="#D7C1B3"/>
<path fill-rule="evenodd" clip-rule="evenodd" d="M8.73584 19.4957L8.74097 19.446L15.3349 19.703L14.6229 20.4824L8.73584 19.4957ZM9.13134 19.5113L14.6042 20.4286L15.2253 19.7488L9.13134 19.5113Z" fill="#D7C1B3"/>
<path d="M15.5956 17.9367L8.73975 19.471L10.3435 16.1376L15.5956 17.9367Z" fill="#E4761B"/>
<path fill-rule="evenodd" clip-rule="evenodd" d="M10.3305 16.1067L15.6875 17.9417L8.69482 19.5066L10.3305 16.1067ZM10.3564 16.1684L8.78473 19.4353L15.5037 17.9316L10.3564 16.1684Z" fill="#E4761B"/>
<path d="M8.73975 19.4709L15.5956 17.9366L15.2799 19.7258L8.73975 19.4709Z" fill="#D7C1B3"/>
<path fill-rule="evenodd" clip-rule="evenodd" d="M15.6269 17.9041L15.3009 19.7516L8.73888 19.4959L8.73438 19.4465L15.6269 17.9041ZM8.9325 19.4534L15.2591 19.7L15.5645 17.9692L8.9325 19.4534Z" fill="#D7C1B3"/>
<path d="M2.02923 7.78153L1.80371 3.93835L6.64991 5.02284L2.02923 7.78153ZM2.51034 9.87054L1.8438 9.19586L2.29485 8.73608L2.51034 9.87054Z" fill="#763D16"/>
<path fill-rule="evenodd" clip-rule="evenodd" d="M1.77686 3.90674L6.71669 5.01218L2.00673 7.82417L1.77686 3.90674ZM1.83077 3.97002L2.05193 7.73893L6.58333 5.03355L1.83077 3.97002ZM2.31063 8.68438L2.55039 9.9466L1.80879 9.19594L2.31063 8.68438ZM1.87902 9.19581L2.4705 9.79451L2.27927 8.78781L1.87902 9.19581Z" fill="#763D16"/>
<path d="M11.7319 13.3489L12.8545 12.3594L12.6942 14.7782L11.7319 13.3489Z" fill="#CD6116"/>
<path fill-rule="evenodd" clip-rule="evenodd" d="M12.8834 12.3004L12.7142 14.853L11.6987 13.3446L12.8834 12.3004ZM11.7648 13.3531L12.6739 14.7034L12.8254 12.4183L11.7648 13.3531Z" fill="#CD6116"/>
<path d="M12.8545 12.3594L11.7319 13.3489L10.0981 14.1935L12.8545 12.3594Z" fill="#CD6116"/>
<path fill-rule="evenodd" clip-rule="evenodd" d="M10.4898 13.9627L11.7174 13.3281L12.5609 12.5847L10.4898 13.9627ZM10.084 14.1727L12.8404 12.3386L12.8709 12.3781L11.7459 13.3697L10.1094 14.2157L10.084 14.1727Z" fill="#CD6116"/>
<path d="M18.1066 17.6468L17.8009 17.4219L15.6108 14.5833L18.1066 17.6468Z" fill="#F6851B"/>
<path fill-rule="evenodd" clip-rule="evenodd" d="M15.5908 14.5985L15.6301 14.5675L18.1259 17.631L18.0915 17.6669L17.783 17.4399L15.5908 14.5985ZM16.7848 16.0641L17.8184 17.4039L17.9627 17.51L16.7848 16.0641Z" fill="#F6851B"/>
<path d="M10.0978 14.1935L7.83252 12.2544L12.8542 12.3593L10.0978 14.1935Z" fill="#CD6116"/>
<path fill-rule="evenodd" clip-rule="evenodd" d="M7.76318 12.228L12.9344 12.3361L10.0959 14.2248L7.76318 12.228ZM7.90191 12.2809L10.0997 14.1622L12.774 12.3827L7.90191 12.2809Z" fill="#CD6116"/>
<path d="M12.6938 14.7782L12.8542 12.3594L13.4706 13.8886L12.6938 14.7782Z" fill="#E4751F"/>
<path fill-rule="evenodd" clip-rule="evenodd" d="M12.8293 12.3576L12.8776 12.35L13.4997 13.8934L12.6641 14.8504L12.8293 12.3576ZM12.8721 12.4703L12.7239 14.7058L13.4418 13.8837L12.8721 12.4703Z" fill="#E4751F"/>
<path d="M1.62354 8.16131L2.02947 7.78149L2.29509 8.73604L1.62354 8.16131Z" fill="#763D16"/>
<path fill-rule="evenodd" clip-rule="evenodd" d="M2.04245 7.73511L2.34115 8.80856L1.58594 8.16224L2.04245 7.73511ZM1.66095 8.16058L2.24883 8.66369L2.01631 7.82809L1.66095 8.16058Z" fill="#763D16"/>
<path d="M12.6941 14.7782L10.0981 14.1935L11.7319 13.3489L12.6941 14.7782Z" fill="#233447"/>
<path fill-rule="evenodd" clip-rule="evenodd" d="M11.7399 13.3164L12.7497 14.8164L10.0254 14.2028L11.7399 13.3164ZM10.1703 14.1842L12.6379 14.74L11.7233 13.3813L10.1703 14.1842Z" fill="#233447"/>
<path d="M6.64991 5.0228L1.80371 3.93831L3.78328 0.549927L6.64991 5.0228Z" fill="#763D16"/>
<path fill-rule="evenodd" clip-rule="evenodd" d="M3.78211 0.502075L6.7036 5.06056L1.76465 3.95532L3.78211 0.502075ZM3.78409 0.597966L1.84241 3.9215L6.59585 4.98522L3.78409 0.597966Z" fill="#763D16"/>
<path d="M14.6133 20.4555L14.889 21.2051L10.4287 20.1306L14.6133 20.4555Z" fill="#C0AD9E"/>
<path fill-rule="evenodd" clip-rule="evenodd" d="M10.4229 20.1549L10.4307 20.1057L14.6314 20.4318L14.9287 21.2404L10.4229 20.1549ZM10.7397 20.1798L14.8494 21.1699L14.5954 20.4791L10.7397 20.1798Z" fill="#C0AD9E"/>
<path d="M10.3437 16.1376L10.0981 14.1935L12.6941 14.7782L10.3437 16.1376Z" fill="#F6851B"/>
<path fill-rule="evenodd" clip-rule="evenodd" d="M10.0684 14.1613L12.7615 14.7679L10.3231 16.1781L10.0684 14.1613ZM10.127 14.2257L10.3634 16.097L12.6259 14.7885L10.127 14.2257Z" fill="#F6851B"/>
<path d="M7.83252 12.2544L10.0978 14.1935L10.3433 16.1376L7.83252 12.2544Z" fill="#E4751F"/>
<path fill-rule="evenodd" clip-rule="evenodd" d="M7.81152 12.2679L7.8489 12.2354L10.1215 14.1807L10.3682 16.1343L10.3223 16.151L7.81152 12.2679ZM7.94704 12.3852L10.3047 16.0316L10.0741 14.2061L7.94704 12.3852Z" fill="#E4751F"/>
<path d="M13.4707 13.8886L15.4553 13.7737L17.8007 17.422L13.4707 13.8886ZM7.83268 12.2544L10.3435 16.1376L7.25635 16.2875L7.83268 12.2544Z" fill="#F6851B"/>
<path fill-rule="evenodd" clip-rule="evenodd" d="M7.81714 12.1846L10.3879 16.1604L7.22705 16.3139L7.81714 12.1846ZM7.8478 12.3242L7.28523 16.261L10.2987 16.1147L7.8478 12.3242ZM15.4683 13.7479L17.8216 17.4084L17.7846 17.4413L13.4049 13.8674L15.4683 13.7479ZM13.5361 13.9098L17.6942 17.3029L15.4419 13.7995L13.5361 13.9098Z" fill="#F6851B"/>
<path d="M13.4706 13.8887L15.9364 17.6319L12.6938 14.7782L13.4706 13.8887Z" fill="#E4751F"/>
<path fill-rule="evenodd" clip-rule="evenodd" d="M13.4735 13.8474L15.9574 17.6182L15.9198 17.6506L12.6587 14.7806L13.4735 13.8474ZM12.7292 14.7759L15.8129 17.4898L13.4679 13.9299L12.7292 14.7759Z" fill="#E4751F"/>
<path d="M12.6938 14.7782L15.9364 17.6318L15.5956 17.9366L12.6938 14.7782Z" fill="#F6851B"/>
<path fill-rule="evenodd" clip-rule="evenodd" d="M12.6753 14.7951L12.7104 14.7595L15.974 17.6318L15.5938 17.9719L12.6753 14.7951ZM13.0312 15.1085L15.5972 17.9017L15.8986 17.6321L13.0312 15.1085Z" fill="#F6851B"/>
<path d="M15.5954 17.9368L10.3433 16.1376L12.6937 14.7783L15.5954 17.9368ZM17.8005 17.422L15.9362 17.6319L13.4705 13.8887L17.8005 17.422Z" fill="#F6851B"/>
<path fill-rule="evenodd" clip-rule="evenodd" d="M13.4496 13.9023L13.4864 13.8693L17.8624 17.4401L15.9237 17.6584L13.4496 13.9023ZM13.5813 14.0113L15.9487 17.6052L17.7387 17.4037L13.5813 14.0113ZM12.6986 14.7465L15.6139 17.9198L15.5873 17.9603L10.2832 16.1434L12.6986 14.7465ZM10.4033 16.1317L15.5104 17.8811L12.6888 14.8099L10.4033 16.1317Z" fill="#F6851B"/>
<path d="M18.2918 19.1812L17.4899 20.7854L14.8889 21.2052L18.2918 19.1812ZM14.8889 21.2052L14.6133 20.4555L15.2798 19.7259L14.8889 21.2052Z" fill="#C0AD9E"/>
<path fill-rule="evenodd" clip-rule="evenodd" d="M18.3523 19.116L17.5066 20.8079L14.909 21.2272L14.8928 21.2884L14.5845 20.4499L15.2613 19.709L15.304 19.7322L14.9287 21.1523L18.3523 19.116ZM14.885 21.1219L15.2295 19.8179L14.642 20.4611L14.885 21.1219ZM15.0144 21.1596L17.4732 20.7627L18.2312 19.2462L15.0144 21.1596Z" fill="#C0AD9E"/>
<path d="M15.2801 19.7259L15.7712 19.531L14.8892 21.2052L15.2801 19.7259ZM14.8892 21.2052L15.7712 19.531L18.2921 19.1812L14.8892 21.2052Z" fill="#C0AD9E"/>
<path fill-rule="evenodd" clip-rule="evenodd" d="M15.7643 19.5066L15.7546 19.508L15.7529 19.5112L15.2586 19.7073L14.8652 21.196L14.8252 21.272L18.3044 19.2026L18.2881 19.1564L15.8157 19.4995L15.8245 19.4827L15.7643 19.5066ZM15.7171 19.5792L14.9692 20.9987L15.3007 19.7444L15.7171 19.5792ZM14.9523 21.1383L15.787 19.5539L18.1725 19.2229L14.9523 21.1383Z" fill="#C0AD9E"/>
<path d="M17.8009 17.422L18.4173 17.7968L16.543 18.0217L17.8009 17.422Z" fill="#161616"/>
<path fill-rule="evenodd" clip-rule="evenodd" d="M17.8024 17.3936L18.4921 17.8129L16.546 18.0464L16.5322 17.9991L17.8024 17.3936ZM16.6912 17.9787L18.3426 17.7806L17.7995 17.4503L16.6912 17.9787Z" fill="#161616"/>
<path d="M16.5429 18.0217L15.9365 17.6319L17.8008 17.422L16.5429 18.0217ZM16.3274 18.3166L18.6076 18.0417L18.2919 19.1811L16.3274 18.3166Z" fill="#161616"/>
<path fill-rule="evenodd" clip-rule="evenodd" d="M16.0091 17.6488L16.5446 17.9931L17.6556 17.4634L16.0091 17.6488ZM17.7979 17.3971L17.8115 17.4445L16.541 18.0502L15.8638 17.6149L17.7979 17.3971ZM18.6417 18.0123L18.3083 19.2156L16.2337 18.3026L18.6417 18.0123ZM16.4209 18.3304L18.2754 19.1465L18.5735 18.0709L16.4209 18.3304Z" fill="#161616"/>
<path d="M18.2917 19.1811L15.7709 19.531L16.3272 18.3165L18.2917 19.1811ZM15.7709 19.531L15.2798 19.7259L15.5955 17.9367L15.7709 19.531ZM15.5955 17.9367L15.9363 17.6318L16.5427 18.0217L15.5955 17.9367ZM18.417 17.7968L18.6074 18.0417L16.3272 18.3165L18.417 17.7968Z" fill="#161616"/>
<path fill-rule="evenodd" clip-rule="evenodd" d="M15.934 17.6006L16.5565 18.0007L16.5407 18.0466L15.624 17.9644L15.7861 19.4381L16.3149 18.2838L16.3297 18.2903L18.427 17.7687L18.6546 18.0612L16.421 18.3305L18.3827 19.1938L15.7776 19.5553L15.2476 19.7657L15.5663 17.9592L15.5362 17.9565L15.934 17.6006ZM15.59 18.1136L15.3125 19.6861L15.7442 19.5148L15.59 18.1136ZM15.8129 19.5L16.3399 18.3494L18.2012 19.1685L15.8129 19.5ZM16.7248 18.2435L18.5608 18.0222L18.4075 17.825L16.7248 18.2435ZM15.6553 17.917L16.4438 17.9878L15.939 17.6633L15.6553 17.917Z" fill="#161616"/>
<path d="M16.3274 18.3165L16.5429 18.0216L18.4173 17.7968L16.3274 18.3165ZM15.5957 17.9367L16.3274 18.3165L15.7711 19.5309L15.5957 17.9367Z" fill="#161616"/>
<path fill-rule="evenodd" clip-rule="evenodd" d="M16.5565 18.0452L16.388 18.2756L18.0214 17.8694L16.5565 18.0452ZM16.3196 18.2844L16.5288 17.9982L18.414 17.772L18.4231 17.821L16.3449 18.3379L15.7559 19.6238L15.5654 17.893L16.3196 18.2844ZM16.2897 18.3253L15.6255 17.9805L15.7858 19.4381L16.2827 18.3533L16.2662 18.3574L16.2897 18.3253Z" fill="#161616"/>
<path d="M16.5429 18.0216L16.3274 18.3164L15.5957 17.9366L16.5429 18.0216Z" fill="#161616"/>
<path fill-rule="evenodd" clip-rule="evenodd" d="M15.584 17.9589L15.5978 17.9119L16.589 18.0008L16.3348 18.3487L15.584 17.9589ZM15.7196 17.973L16.3197 18.2845L16.4964 18.0427L15.7196 17.973Z" fill="#161616"/>
</g>
<defs>
<clipPath id="clip0_142_11">
<rect width="20.25" height="21" fill="white" transform="translate(0.875 0.5)"/>
</clipPath>
</defs>
</svg>
